<?xml version="1.0" encoding="UTF-8"?>
<svg id="Layer_2" data-name="Layer 2" xmlns="http://www.w3.org/2000/svg" xmlns:xlink="http://www.w3.org/1999/xlink" viewBox="0 0 1920 1080">
  <defs>
    <style>
      .cls-1 {
        fill: #faa534;
      }

      .cls-1, .cls-2, .cls-3, .cls-4, .cls-5, .cls-6, .cls-7, .cls-8, .cls-9, .cls-10, .cls-11 {
        stroke-miterlimit: 10;
      }

      .cls-1, .cls-2, .cls-3, .cls-4, .cls-5, .cls-7, .cls-8, .cls-10, .cls-11 {
        stroke: #000;
      }

      .cls-1, .cls-2, .cls-4, .cls-5, .cls-7, .cls-9, .cls-10, .cls-11 {
        stroke-width: 3px;
      }

      .cls-2, .cls-9 {
        fill: #75b165;
      }

      .cls-3 {
        fill: #fff;
      }

      .cls-3, .cls-6, .cls-8 {
        stroke-width: 10px;
      }

      .cls-5 {
        fill: #e43222;
      }

      .cls-6 {
        stroke: #e43222;
      }

      .cls-6, .cls-8, .cls-10 {
        fill: none;
      }

      .cls-12, .cls-11 {
        fill: #0a0ad5;
      }

      .cls-7 {
        fill: #fdef36;
      }

      .cls-9 {
        stroke: #231f20;
      }

      .cls-13 {
        clip-path: url(#clippath);
      }
    </style>
    <clipPath id="clippath">
      <path class="cls-11" d="M1700.13,830.39s19.3-16.17,29.22-14.09,33.91,22.96,38.09,36-46.43,9.91-46.43,9.91c0,0,56.11,17.85,82.09,90.89.47,1.33-.31,2.77-1.67,3.12-14.68,3.74-87.64,24.83-79.45,72.63.3,1.73-.69,3.42-2.36,3.96-12.31,3.94-62.29,16.53-136.56-9.35-2.78-.97-4.98-3.14-5.95-5.91-3.12-8.88-10.51-28.71-15.74-32.73s-61.66-37.31-84.95-51c-4.99-2.93-5.39-10.01-.74-13.47,8.8-6.56,22.46-15.04,34.56-15.36,19.83-.52,188.35,0,188.35,0,0,0-99.65,108.52-47.48,105.91,49.52-2.48,93.81-101.76,67.92-132.38-3.44-4.07-6.19-8.68-7.82-13.75l-11.05-34.39Z"/>
    </clipPath>
  </defs>
  <rect class="cls-3" x="351" y="108" width="1224" height="774"/>
  <path class="cls-8" d="M479.73,276.39l2.51,2.03c7.72,6.26,8.44,14.75,1.82,21.46l-5.11,5.18c-6.62,6.71-5.9,15.2,1.82,21.46h0c8.44,6.85,8.44,16.26,0,23.11l-12.76,10.36"/>
  <path class="cls-8" d="M457.23,276.39l2.51,2.03c7.72,6.26,8.44,14.75,1.82,21.46l-5.11,5.18c-6.62,6.71-5.9,15.2,1.82,21.46h0c8.44,6.85,8.44,16.26,0,23.11l-12.76,10.36"/>
  <path class="cls-8" d="M434.73,276.39l2.51,2.03c7.72,6.26,8.44,14.75,1.82,21.46l-5.11,5.18c-6.62,6.71-5.9,15.2,1.82,21.46h0c8.44,6.85,8.44,16.26,0,23.11l-12.76,10.36"/>
  <circle class="cls-4" cx="1777.87" cy="1024.48" r="37.3"/>
  <circle class="cls-1" cx="1776.96" cy="1025.39" r="29.61"/>
  <rect class="cls-5" x="1753.25" y="966.52" width="14.02" height="73.4" rx="7.01" ry="7.01" transform="translate(-244.46 1296.63) rotate(-38.01)"/>
  <path class="cls-7" d="M1716.83,1025.52s37.04-75.65,111.13-25.04c0,0-23.48-54.78-81.91-50.09s-29.22,75.13-29.22,75.13Z"/>
  <path class="cls-7" d="M1502.39,942.57s-18.26,55.83-41.74,54.78c0,0,40.17,19.83,114.26-9.39l-72.52-45.39Z"/>
  <circle class="cls-4" cx="1533.17" cy="1017.17" r="37.3"/>
  <circle class="cls-1" cx="1532.26" cy="1018.09" r="29.61"/>
  <polygon class="cls-5" points="1591.09 1018.22 1476.83 1018.22 1493.45 991.88 1599.43 1004.65 1591.09 1018.22"/>
  <g>
    <path class="cls-12" d="M1700.13,830.39s19.3-16.17,29.22-14.09,33.91,22.96,38.09,36-46.43,9.91-46.43,9.91c0,0,56.11,17.85,82.09,90.89.47,1.33-.31,2.77-1.67,3.12-14.68,3.74-87.64,24.83-79.45,72.63.3,1.73-.69,3.42-2.36,3.96-12.31,3.94-62.29,16.53-136.56-9.35-2.78-.97-4.98-3.14-5.95-5.91-3.12-8.88-10.51-28.71-15.74-32.73s-61.66-37.31-84.95-51c-4.99-2.93-5.39-10.01-.74-13.47,8.8-6.56,22.46-15.04,34.56-15.36,19.83-.52,188.35,0,188.35,0,0,0-99.65,108.52-47.48,105.91,49.52-2.48,93.81-101.76,67.92-132.38-3.44-4.07-6.19-8.68-7.82-13.75l-11.05-34.39Z"/>
    <g class="cls-13">
      <path class="cls-7" d="M1741.09,818.13s-3.39,42,26.35,34.17-26.35-34.17-26.35-34.17Z"/>
    </g>
    <path class="cls-10" d="M1700.13,830.39s19.3-16.17,29.22-14.09,33.91,22.96,38.09,36-46.43,9.91-46.43,9.91c0,0,56.11,17.85,82.09,90.89.47,1.33-.31,2.77-1.67,3.12-14.68,3.74-87.64,24.83-79.45,72.63.3,1.73-.69,3.42-2.36,3.96-12.31,3.94-62.29,16.53-136.56-9.35-2.78-.97-4.98-3.14-5.95-5.91-3.12-8.88-10.51-28.71-15.74-32.73s-61.66-37.31-84.95-51c-4.99-2.93-5.39-10.01-.74-13.47,8.8-6.56,22.46-15.04,34.56-15.36,19.83-.52,188.35,0,188.35,0,0,0-99.65,108.52-47.48,105.91,49.52-2.48,93.81-101.76,67.92-132.38-3.44-4.07-6.19-8.68-7.82-13.75l-11.05-34.39Z"/>
  </g>
  <path class="cls-5" d="M1706.39,903.43c0,10.66-88.74,15.63-153.39,17.74-63.91,2.09-80.87-7.08-80.87-17.74s27.39-27.65,89.74-14.61c63.32,13.25,144.52,3.95,144.52,14.61Z"/>
  <circle class="cls-5" cx="1724.39" cy="839" r="5.48"/>
  <path class="cls-5" d="M1731.89,822.2c-.55-2.44-1.63-5.71-3.47-10.05-.07-.16-.05-.35.05-.49.78-1.1,3.63-6.34-5.37-15.05-1.5-1.45-4.03-.68-4.44,1.37-1.33,6.68-2.56,18.36,6,15.39.27-.09.57.05.65.33l2.6,9.48c.7,2.56,4.56,1.62,3.98-.97Z"/>
  <polygon class="cls-9" points="1575.74 66.54 347.04 66.54 322.78 115.84 1600 115.84 1575.74 66.54"/>
  <rect class="cls-2" x="322" y="870.87" width="1280.35" height="31.3"/>
  <path class="cls-6" d="M332.74,143.62c204.35,16.48,426.88,25.85,665.22,23.48,204.02-2.03,396-12.42,574.43-28.17"/>
  <path class="cls-7" d="M450.05,151.03l-27.85,107.58c-1.42,5.5,2.73,10.86,8.41,10.86h55.7c5.68,0,9.83-5.36,8.41-10.86l-27.85-107.58c-2.25-8.68-14.57-8.68-16.82,0Z"/>
  <path class="cls-8" d="M983.73,302.87l2.51,2.03c7.72,6.26,8.44,14.75,1.82,21.46l-5.11,5.18c-6.62,6.71-5.9,15.2,1.82,21.46h0c8.44,6.85,8.44,16.26,0,23.11l-12.76,10.36"/>
  <path class="cls-8" d="M961.23,302.87l2.51,2.03c7.72,6.26,8.44,14.75,1.82,21.46l-5.11,5.18c-6.62,6.71-5.9,15.2,1.82,21.46h0c8.44,6.85,8.44,16.26,0,23.11l-12.76,10.36"/>
  <path class="cls-8" d="M938.73,302.87l2.51,2.03c7.72,6.26,8.44,14.75,1.82,21.46l-5.11,5.18c-6.62,6.71-5.9,15.2,1.82,21.46h0c8.44,6.85,8.44,16.26,0,23.11l-12.76,10.36"/>
  <path class="cls-7" d="M954.05,177.51l-27.85,107.58c-1.42,5.5,2.73,10.86,8.41,10.86h55.7c5.68,0,9.83-5.36,8.41-10.86l-27.85-107.58c-2.25-8.68-14.57-8.68-16.82,0Z"/>
  <path class="cls-8" d="M1469.73,276.39l2.51,2.03c7.72,6.26,8.44,14.75,1.82,21.46l-5.11,5.18c-6.62,6.71-5.9,15.2,1.82,21.46h0c8.44,6.85,8.44,16.26,0,23.11l-12.76,10.36"/>
  <path class="cls-8" d="M1447.23,276.39l2.51,2.03c7.72,6.26,8.44,14.75,1.82,21.46l-5.11,5.18c-6.62,6.71-5.9,15.2,1.82,21.46h0c8.44,6.85,8.44,16.26,0,23.11l-12.76,10.36"/>
  <path class="cls-8" d="M1424.73,276.39l2.51,2.03c7.72,6.26,8.44,14.75,1.82,21.46l-5.11,5.18c-6.62,6.71-5.9,15.2,1.82,21.46h0c8.44,6.85,8.44,16.26,0,23.11l-12.76,10.36"/>
  <path class="cls-7" d="M1440.05,151.03l-27.85,107.58c-1.42,5.5,2.73,10.86,8.41,10.86h55.7c5.68,0,9.83-5.36,8.41-10.86l-27.85-107.58c-2.25-8.68-14.57-8.68-16.82,0Z"/>
  <path class="cls-8" d="M1136.73,293.87l2.51,2.03c7.72,6.26,8.44,14.75,1.82,21.46l-5.11,5.18c-6.62,6.71-5.9,15.2,1.82,21.46h0c8.44,6.85,8.44,16.26,0,23.11l-12.76,10.36"/>
  <path class="cls-8" d="M1114.23,293.87l2.51,2.03c7.72,6.26,8.44,14.75,1.82,21.46l-5.11,5.18c-6.62,6.71-5.9,15.2,1.82,21.46h0c8.44,6.85,8.44,16.26,0,23.11l-12.76,10.36"/>
  <path class="cls-8" d="M1091.73,293.87l2.51,2.03c7.72,6.26,8.44,14.75,1.82,21.46l-5.11,5.18c-6.62,6.71-5.9,15.2,1.82,21.46h0c8.44,6.85,8.44,16.26,0,23.11l-12.76,10.36"/>
  <path class="cls-7" d="M1107.05,168.51l-27.85,107.58c-1.42,5.5,2.73,10.86,8.41,10.86h55.7c5.68,0,9.83-5.36,8.41-10.86l-27.85-107.58c-2.25-8.68-14.57-8.68-16.82,0Z"/>
  <path class="cls-8" d="M1307.73,285.39l2.51,2.03c7.72,6.26,8.44,14.75,1.82,21.46l-5.11,5.18c-6.62,6.71-5.9,15.2,1.82,21.46h0c8.44,6.85,8.44,16.26,0,23.11l-12.76,10.36"/>
  <path class="cls-8" d="M1285.23,285.39l2.51,2.03c7.72,6.26,8.44,14.75,1.82,21.46l-5.11,5.18c-6.62,6.71-5.9,15.2,1.82,21.46h0c8.44,6.85,8.44,16.26,0,23.11l-12.76,10.36"/>
  <path class="cls-8" d="M1262.73,285.39l2.51,2.03c7.72,6.26,8.44,14.75,1.82,21.46l-5.11,5.18c-6.62,6.71-5.9,15.2,1.82,21.46h0c8.44,6.85,8.44,16.26,0,23.11l-12.76,10.36"/>
  <path class="cls-7" d="M1278.05,160.03l-27.85,107.58c-1.42,5.5,2.73,10.86,8.41,10.86h55.7c5.68,0,9.83-5.36,8.41-10.86l-27.85-107.58c-2.25-8.68-14.57-8.68-16.82,0Z"/>
  <path class="cls-8" d="M779.19,293.35l-2.51,2.03c-7.72,6.26-8.44,14.75-1.82,21.46l5.11,5.18c6.62,6.71,5.9,15.2-1.82,21.46h0c-8.44,6.85-8.44,16.26,0,23.11l12.76,10.36"/>
  <path class="cls-8" d="M801.69,293.35l-2.51,2.03c-7.72,6.26-8.44,14.75-1.82,21.46l5.11,5.18c6.62,6.71,5.9,15.2-1.82,21.46h0c-8.44,6.85-8.44,16.26,0,23.11l12.76,10.36"/>
  <path class="cls-8" d="M824.19,293.35l-2.51,2.03c-7.72,6.26-8.44,14.75-1.82,21.46l5.11,5.18c6.62,6.71,5.9,15.2-1.82,21.46h0c-8.44,6.85-8.44,16.26,0,23.11l12.76,10.36"/>
  <path class="cls-7" d="M808.87,167.99l27.85,107.58c1.42,5.5-2.73,10.86-8.41,10.86h-55.7c-5.68,0-9.83-5.36-8.41-10.86l27.85-107.58c2.25-8.68,14.57-8.68,16.82,0Z"/>
  <path class="cls-8" d="M608.19,284.87l-2.51,2.03c-7.72,6.26-8.44,14.75-1.82,21.46l5.11,5.18c6.62,6.71,5.9,15.2-1.82,21.46h0c-8.44,6.85-8.44,16.26,0,23.11l12.76,10.36"/>
  <path class="cls-8" d="M630.69,284.87l-2.51,2.03c-7.72,6.26-8.44,14.75-1.82,21.46l5.11,5.18c6.62,6.71,5.9,15.2-1.82,21.46h0c-8.44,6.85-8.44,16.26,0,23.11l12.76,10.36"/>
  <path class="cls-8" d="M653.19,284.87l-2.51,2.03c-7.72,6.26-8.44,14.75-1.82,21.46l5.11,5.18c6.62,6.71,5.9,15.2-1.82,21.46h0c-8.44,6.85-8.44,16.26,0,23.11l12.76,10.36"/>
  <path class="cls-7" d="M637.87,159.51l27.85,107.58c1.42,5.5-2.73,10.86-8.41,10.86h-55.7c-5.68,0-9.83-5.36-8.41-10.86l27.85-107.58c2.25-8.68,14.57-8.68,16.82,0Z"/>
</svg>