<?xml version="1.0" encoding="UTF-8"?>
<svg id="Layer_1" data-name="Layer 1" xmlns="http://www.w3.org/2000/svg" xmlns:xlink="http://www.w3.org/1999/xlink" viewBox="0 0 873.65 1562.41">
  <defs>
    <style>
      .cls-1 {
        fill: #faa534;
      }

      .cls-1, .cls-2, .cls-3, .cls-4, .cls-5, .cls-6, .cls-7, .cls-8, .cls-9, .cls-10 {
        stroke-miterlimit: 10;
      }

      .cls-1, .cls-2, .cls-3, .cls-4, .cls-5, .cls-7, .cls-9, .cls-10 {
        stroke: #000;
      }

      .cls-1, .cls-2, .cls-4, .cls-5, .cls-7, .cls-8, .cls-9, .cls-10 {
        stroke-width: 3px;
      }

      .cls-2, .cls-8 {
        fill: #75b165;
      }

      .cls-3 {
        fill: #fff;
      }

      .cls-3, .cls-6 {
        stroke-width: 10px;
      }

      .cls-5 {
        fill: #e43222;
      }

      .cls-6 {
        stroke: #e43222;
      }

      .cls-6, .cls-9 {
        fill: none;
      }

      .cls-11, .cls-10 {
        fill: #0a0ad5;
      }

      .cls-7 {
        fill: #fdef36;
      }

      .cls-8 {
        stroke: #231f20;
      }

      .cls-12 {
        clip-path: url(#clippath);
      }
    </style>
    <clipPath id="clippath">
      <path class="cls-10" d="M726.32,1300.39s21.73-18.21,32.9-15.86,38.18,25.85,42.88,40.53c4.7,14.69-52.28,11.16-52.28,11.16,0,0,63.18,20.1,92.42,102.34.53,1.49-.35,3.12-1.88,3.51-16.52,4.21-98.68,27.95-89.45,81.78.33,1.95-.78,3.86-2.66,4.46-13.86,4.44-70.13,18.62-153.76-10.53-3.13-1.09-5.6-3.53-6.7-6.66-3.51-10-11.84-32.32-17.72-36.85-6.04-4.65-69.42-42.01-95.65-57.42-5.62-3.3-6.06-11.26-.84-15.16,9.91-7.39,25.29-16.94,38.92-17.3,22.32-.59,212.06,0,212.06,0,0,0-112.2,122.19-53.46,119.25,55.75-2.79,105.62-114.57,76.47-149.05-3.88-4.58-6.97-9.77-8.81-15.48l-12.44-38.72Z"/>
    </clipPath>
  </defs>
  <rect class="cls-3" x="17.93" y="40.43" width="693.27" height="1314.59"/>
  <circle class="cls-4" cx="813.85" cy="1518.91" r="42"/>
  <circle class="cls-1" cx="812.82" cy="1519.94" r="33.34"/>
  <rect class="cls-5" x="786.13" y="1453.66" width="15.79" height="82.64" rx="7.01" ry="7.01" transform="translate(-752.16 805.95) rotate(-38.01)"/>
  <path class="cls-7" d="M745.12,1520.09s41.71-85.18,125.12-28.2c0,0-26.43-61.68-92.23-56.39-65.79,5.29-32.9,84.59-32.9,84.59Z"/>
  <path class="cls-7" d="M503.68,1426.69s-20.56,62.86-46.99,61.68c0,0,45.23,22.32,128.65-10.57l-81.65-51.11Z"/>
  <circle class="cls-4" cx="538.34" cy="1510.69" r="42"/>
  <circle class="cls-1" cx="537.31" cy="1511.72" r="33.34"/>
  <polygon class="cls-5" points="603.55 1511.86 474.9 1511.86 493.62 1482.21 612.95 1496.59 603.55 1511.86"/>
  <g>
    <path class="cls-11" d="M726.32,1300.39s21.73-18.21,32.9-15.86,38.18,25.85,42.88,40.53c4.7,14.69-52.28,11.16-52.28,11.16,0,0,63.18,20.1,92.42,102.34.53,1.49-.35,3.12-1.88,3.51-16.52,4.21-98.68,27.95-89.45,81.78.33,1.95-.78,3.86-2.66,4.46-13.86,4.44-70.13,18.62-153.76-10.53-3.13-1.09-5.6-3.53-6.7-6.66-3.51-10-11.84-32.32-17.72-36.85-6.04-4.65-69.42-42.01-95.65-57.42-5.62-3.3-6.06-11.26-.84-15.16,9.91-7.39,25.29-16.94,38.92-17.3,22.32-.59,212.06,0,212.06,0,0,0-112.2,122.19-53.46,119.25,55.75-2.79,105.62-114.57,76.47-149.05-3.88-4.58-6.97-9.77-8.81-15.48l-12.44-38.72Z"/>
    <g class="cls-12">
      <path class="cls-7" d="M772.43,1286.58s-3.82,47.29,29.67,38.48c33.48-8.81-29.67-38.48-29.67-38.48Z"/>
    </g>
    <path class="cls-9" d="M726.32,1300.39s21.73-18.21,32.9-15.86,38.18,25.85,42.88,40.53c4.7,14.69-52.28,11.16-52.28,11.16,0,0,63.18,20.1,92.42,102.34.53,1.49-.35,3.12-1.88,3.51-16.52,4.21-98.68,27.95-89.45,81.78.33,1.95-.78,3.86-2.66,4.46-13.86,4.44-70.13,18.62-153.76-10.53-3.13-1.09-5.6-3.53-6.7-6.66-3.51-10-11.84-32.32-17.72-36.85-6.04-4.65-69.42-42.01-95.65-57.42-5.62-3.3-6.06-11.26-.84-15.16,9.91-7.39,25.29-16.94,38.92-17.3,22.32-.59,212.06,0,212.06,0,0,0-112.2,122.19-53.46,119.25,55.75-2.79,105.62-114.57,76.47-149.05-3.88-4.58-6.97-9.77-8.81-15.48l-12.44-38.72Z"/>
  </g>
  <path class="cls-5" d="M733.37,1382.63c0,12-99.91,17.6-172.71,19.97-71.96,2.35-91.05-7.97-91.05-19.97s30.84-31.13,101.04-16.45c71.29,14.91,162.72,4.44,162.72,16.45Z"/>
  <circle class="cls-5" cx="753.64" cy="1310.08" r="6.17"/>
  <path class="cls-5" d="M762.08,1291.16c-.62-2.75-1.83-6.43-3.91-11.32-.08-.18-.05-.39.06-.55.88-1.24,4.09-7.14-6.04-16.95-1.69-1.64-4.54-.76-5,1.54-1.5,7.52-2.88,20.67,6.76,17.33.31-.11.64.06.73.37l2.93,10.67c.79,2.88,5.14,1.82,4.48-1.09Z"/>
  <polygon class="cls-8" points="711.62 1.5 15.68 1.5 1.94 65.36 725.36 65.36 711.62 1.5"/>
  <rect class="cls-2" x="1.5" y="1340.61" width="725.19" height="40.54"/>
  <path class="cls-6" d="M7.58,101.34c117.83,21.35,246.14,33.48,383.57,30.41,117.64-2.63,228.34-16.08,331.23-36.49"/>
  <path class="cls-9" d="M320.9,199.43l1.62,1.32c4.99,4.05,5.46,9.54,1.18,13.88l-3.31,3.35c-4.28,4.34-3.82,9.83,1.18,13.88h0c5.46,4.43,5.46,10.52,0,14.95l-8.26,6.7"/>
  <path class="cls-9" d="M306.35,199.43l1.62,1.32c4.99,4.05,5.46,9.54,1.18,13.88l-3.31,3.35c-4.28,4.34-3.82,9.83,1.18,13.88h0c5.46,4.43,5.46,10.52,0,14.95l-8.26,6.7"/>
  <path class="cls-9" d="M291.79,199.43l1.62,1.32c4.99,4.05,5.46,9.54,1.18,13.88l-3.31,3.35c-4.28,4.34-3.82,9.83,1.18,13.88h0c5.46,4.43,5.46,10.52,0,14.95l-8.26,6.7"/>
  <path class="cls-7" d="M298.73,129.81l-14.05,54.29c-1.42,5.5,2.73,10.86,8.41,10.86h28.11c5.68,0,9.83-5.36,8.41-10.86l-14.05-54.29c-2.25-8.68-14.57-8.68-16.82,0Z"/>
  <path class="cls-9" d="M419.88,193.61l1.62,1.32c4.99,4.05,5.46,9.54,1.18,13.88l-3.31,3.35c-4.28,4.34-3.82,9.83,1.18,13.88h0c5.46,4.43,5.46,10.52,0,14.95l-8.26,6.7"/>
  <path class="cls-9" d="M405.32,193.61l1.62,1.32c4.99,4.05,5.46,9.54,1.18,13.88l-3.31,3.35c-4.28,4.34-3.82,9.83,1.18,13.88h0c5.46,4.43,5.46,10.52,0,14.95l-8.26,6.7"/>
  <path class="cls-9" d="M390.77,193.61l1.62,1.32c4.99,4.05,5.46,9.54,1.18,13.88l-3.31,3.35c-4.28,4.34-3.82,9.83,1.18,13.88h0c5.46,4.43,5.46,10.52,0,14.95l-8.26,6.7"/>
  <path class="cls-7" d="M397.71,123.99l-14.05,54.29c-1.42,5.5,2.73,10.86,8.41,10.86h28.11c5.68,0,9.83-5.36,8.41-10.86l-14.05-54.29c-2.25-8.68-14.57-8.68-16.82,0Z"/>
  <path class="cls-9" d="M530.5,188.13l1.62,1.32c4.99,4.05,5.46,9.54,1.18,13.88l-3.31,3.35c-4.28,4.34-3.82,9.83,1.18,13.88h0c5.46,4.43,5.46,10.52,0,14.95l-8.26,6.7"/>
  <path class="cls-9" d="M515.94,188.13l1.62,1.32c4.99,4.05,5.46,9.54,1.18,13.88l-3.31,3.35c-4.28,4.34-3.82,9.83,1.18,13.88h0c5.46,4.43,5.46,10.52,0,14.95l-8.26,6.7"/>
  <path class="cls-9" d="M501.39,188.13l1.62,1.32c4.99,4.05,5.46,9.54,1.18,13.88l-3.31,3.35c-4.28,4.34-3.82,9.83,1.18,13.88h0c5.46,4.43,5.46,10.52,0,14.95l-8.26,6.7"/>
  <path class="cls-7" d="M508.33,118.5l-14.05,54.29c-1.42,5.5,2.73,10.86,8.41,10.86h28.11c5.68,0,9.83-5.36,8.41-10.86l-14.05-54.29c-2.25-8.68-14.57-8.68-16.82,0Z"/>
  <path class="cls-9" d="M188.58,193.27l-1.62,1.32c-4.99,4.05-5.46,9.54-1.18,13.88l3.31,3.35c4.28,4.34,3.82,9.83-1.18,13.88h0c-5.46,4.43-5.46,10.52,0,14.95l8.26,6.7"/>
  <path class="cls-9" d="M203.14,193.27l-1.62,1.32c-4.99,4.05-5.46,9.54-1.18,13.88l3.31,3.35c4.28,4.34,3.82,9.83-1.18,13.88h0c-5.46,4.43-5.46,10.52,0,14.95l8.26,6.7"/>
  <path class="cls-9" d="M217.69,193.27l-1.62,1.32c-4.99,4.05-5.46,9.54-1.18,13.88l3.31,3.35c4.28,4.34,3.82,9.83-1.18,13.88h0c-5.46,4.43-5.46,10.52,0,14.95l8.26,6.7"/>
  <path class="cls-7" d="M210.75,123.65l14.05,54.29c1.42,5.5-2.73,10.86-8.41,10.86h-28.11c-5.68,0-9.83-5.36-8.41-10.86l14.05-54.29c2.25-8.68,14.57-8.68,16.82,0Z"/>
  <path class="cls-9" d="M77.96,187.79l-1.62,1.32c-4.99,4.05-5.46,9.54-1.18,13.88l3.31,3.35c4.28,4.34,3.82,9.83-1.18,13.88h0c-5.46,4.43-5.46,10.52,0,14.95l8.26,6.7"/>
  <path class="cls-9" d="M92.52,187.79l-1.62,1.32c-4.99,4.05-5.46,9.54-1.18,13.88l3.31,3.35c4.28,4.34,3.82,9.83-1.18,13.88h0c-5.46,4.43-5.46,10.52,0,14.95l8.26,6.7"/>
  <path class="cls-9" d="M107.07,187.79l-1.62,1.32c-4.99,4.05-5.46,9.54-1.18,13.88l3.31,3.35c4.28,4.34,3.82,9.83-1.18,13.88h0c-5.46,4.43-5.46,10.52,0,14.95l8.26,6.7"/>
  <path class="cls-7" d="M100.13,118.17l14.05,54.29c1.42,5.5-2.73,10.86-8.41,10.86h-28.11c-5.68,0-9.83-5.36-8.41-10.86l14.05-54.29c2.25-8.68,14.57-8.68,16.82,0Z"/>
  <path class="cls-9" d="M614.44,177.98l-1.62,1.32c-4.99,4.05-5.46,9.54-1.18,13.88l3.31,3.35c4.28,4.34,3.82,9.83-1.18,13.88h0c-5.46,4.43-5.46,10.52,0,14.95l8.26,6.7"/>
  <path class="cls-9" d="M628.99,177.98l-1.62,1.32c-4.99,4.05-5.46,9.54-1.18,13.88l3.31,3.35c4.28,4.34,3.82,9.83-1.18,13.88h0c-5.46,4.43-5.46,10.52,0,14.95l8.26,6.7"/>
  <path class="cls-9" d="M643.55,177.98l-1.62,1.32c-4.99,4.05-5.46,9.54-1.18,13.88l3.31,3.35c4.28,4.34,3.82,9.83-1.18,13.88h0c-5.46,4.43-5.46,10.52,0,14.95l8.26,6.7"/>
  <path class="cls-7" d="M636.61,108.35l14.05,54.29c1.42,5.5-2.73,10.86-8.41,10.86h-28.11c-5.68,0-9.83-5.36-8.41-10.86l14.05-54.29c2.25-8.68,14.57-8.68,16.82,0Z"/>
</svg>